HIERARCHY
ROOT ui
{
	 OFFSET 0 0 0
	 CHANNELS 3 XPosition YPosition Z Position
	 EndSite
	 {
	 OFFSET 0 -1 0
	 }
}
ROOT li
{
	 OFFSET 0 0 0
	 CHANNELS 3 XPosition YPosition Z Position
	 EndSite
	 {
	 OFFSET 0 -1 0
	 }
}
ROOT ul
{
	 OFFSET 0 0 0
	 CHANNELS 3 XPosition YPosition Z Position
	 EndSite
	 {
	 OFFSET 0 -1 0
	 }
}
ROOT ll
{
	 OFFSET 0 0 0
	 CHANNELS 3 XPosition YPosition Z Position
	 EndSite
	 {
	 OFFSET 0 -1 0
	 }
}
ROOT tt
{
	 OFFSET 0 0 0
	 CHANNELS 3 XPosition YPosition Z Position
	 EndSite
	 {
	 OFFSET 0 -1 0
	 }
}
ROOT tb
{
	 OFFSET 0 0 0
	 CHANNELS 3 XPosition YPosition Z Position
	 EndSite
	 {
	 OFFSET 0 -1 0
	 }
}
ROOT td
{
	 OFFSET 0 0 0
	 CHANNELS 3 XPosition YPosition Z Position
	 EndSite
	 {
	 OFFSET 0 -1 0
	 }
}
ROOT v
{
	 OFFSET 0 0 0
	 CHANNELS 3 XPosition YPosition Z Position
	 EndSite
	 {
	 OFFSET 0 -1 0
	 }
}
ROOT bn
{
	 OFFSET 0 0 0
	 CHANNELS 3 XPosition YPosition Z Position
	 EndSite
	 {
	 OFFSET 0 -1 0
	 }
}
MOTION
Frames: 19
Frame Time: 0.002
8.878960013389588E-4	3.9458298683166503E-4	0		0.623770263671875	-2.408240966796875	0		-0.9282811279296875	0.3721174621582031	0		-0.5739840087890625	-2.665747802734375	0		1.787310546875	-0.44728411865234374	0		3.200778564453125	0.06898423767089844	0		4.2500263671875	0.5660548095703125	0		5.99740185546875	0.35526040649414065	0		-0.22713192749023436	5.93709912109375	0		
8.784199953079223E-4	4.479800164699554E-5	0		0.5949024658203125	-2.40825341796875	0		-1.0083494873046874	0.3685445861816406	0		-0.6265966796875	-2.64258203125	0		1.7873270263671874	-0.44752996826171876	0		3.199889892578125	0.08083032989501954	0		4.24998388671875	0.5659522094726562	0		5.99376513671875	0.33978384399414063	0		-0.19342626953125	5.9423828125	0		
8.597019910812378E-4	-3.0550900101661684E-4	0		0.5950216064453125	-2.40856982421875	0		-0.9333932495117188	0.36736196899414064	0		-0.60828955078125	-2.626155029296875	0		1.762397216796875	-0.44152017211914063	0		3.20568017578125	0.06260215377807617	0		4.24286083984375	0.5589177856445312	0		5.9937548828125	0.33977557373046874	0		-0.259060546875	5.9156943359375	0		
-0.00319665789604187	-0.0036151890754699705	0		0.5711826782226562	-2.403641357421875	0		-1.0033947143554687	0.37167776489257814	0		-0.6710218505859376	-2.6118935546875	0		1.764539794921875	-0.427794189453125	0		3.191846923828125	0.0815726318359375	0		4.24280419921875	0.5588032836914063	0		5.99737109375	0.355230712890625	0		-0.2291916046142578	5.93701953125	0		
0.003844054937362671	0.0029612770080566404	0		0.594412841796875	-2.39119775390625	0		-0.9943640747070313	0.37917999267578123	0		-0.6608104248046875	-2.6023837890625	0		1.7506146240234375	-0.419908203125	0		3.18360791015625	0.06147548294067383	0		4.2427431640625	0.5586798706054688	0		5.99735205078125	0.35518438720703127	0		-0.24465293884277345	5.9258095703125	0		
7.700690031051635E-4	-0.001359495997428894	0		0.5945025634765625	-2.391518798828125	0		-0.9984573974609375	0.3748179931640625	0		-0.6566592407226562	-2.597810302734375	0		1.7797132568359375	-0.40946517944335936	0		3.209631103515625	0.06702301788330078	0		4.23848828125	0.539588134765625	0		6.0002705078125	0.37580242919921875	0		-0.2109319763183594	5.93109912109375	0		
7.36063003540039E-4	-0.001710968017578125	0		0.6106151123046875	-2.389003173828125	0		-0.9284627685546875	0.37870916748046873	0		-0.6545459594726563	-2.59621435546875	0		1.75476123046875	-0.4034769287109375	0		3.17959521484375	0.06713216400146485	0		4.238427734375	0.5394441528320313	0		5.99311572265625	0.37588140869140624	0		-0.21223616027832032	5.93274755859375	0		
-0.0033270039558410645	-0.005021286964416504	0		0.5748050537109375	-2.3779638671875	0		-0.9286040649414062	0.36931591796875	0		-0.6524390258789062	-2.594615478515625	0		1.7747457275390626	-0.4039480285644531	0		3.1755087890625	0.061968887329101566	0		4.2343095703125	0.5333298950195312	0		5.99728662109375	0.35489373779296873	0		-0.2465921630859375	5.9277294921875	0		
6.725959777832032E-4	-0.002410653114318848	0		0.5858165893554688	-2.38439794921875	0		-0.99860693359375	0.3736285400390625	0		-0.7172137451171875	-2.580341552734375	0		1.7387845458984375	-0.3988595275878906	0		3.178335205078125	0.04772781372070312	0		4.22225634765625	0.5332843017578125	0		6.000904296875	0.37195419311523437	0		-0.24590902709960938	5.92435986328125	0		
0.00771619176864624	0.004173768997192383	0		0.5680067749023437	-2.372540771484375	0		-0.9895684814453125	0.3811529235839844	0		-0.6350906372070313	-2.576534912109375	0		1.762943115234375	-0.38237579345703127	0		3.198555908203125	0.07230875396728516	0		4.23420849609375	0.5329881591796874	0		6.00088720703125	0.3717756652832031	0		-0.231063232421875	5.9348544921875	0		
0.0036661410331726074	8.743640184402466E-4	0		0.5741929321289062	-2.360919677734375	0		-0.99959228515625	0.3818763427734375	0		-0.678884521484375	-2.563460693359375	0		1.7330577392578126	-0.3703526306152344	0		3.153415771484375	0.06053515243530273	0		4.21810986328125	0.5269638061523437	0		5.9881435546875	0.3978314514160156	0		-0.21333253479003905	5.9313271484375	0		
0.0036520729064941407	5.424110293388367E-4	0		0.572228271484375	-2.364212646484375	0		-0.9286622924804687	0.376806884765625	0		-0.6507447509765625	-2.557093505859375	0		1.7690047607421875	-0.3759834899902344	0		3.16839892578125	0.06015987014770508	0		4.22981982421875	0.5006551818847657	0		5.99597265625	0.39568740844726563	0		-0.24858305358886718	5.92733544921875	0		
-0.0034252738952636717	-0.0067108159065246585	0		0.5722909545898438	-2.364518310546875	0		-1.0046783447265626	0.37720742797851564	0		-0.7236231689453125	-2.551714599609375	0		1.7360982666015625	-0.3669272766113281	0		3.178259765625	0.04683415603637695	0		4.2227373046875	0.4945291748046875	0		5.98812890625	0.39736151123046876	0		-0.26387802124023435	5.91615380859375	0		
-0.0013207039833068848	0.0039569480419158936	0		0.523451416015625	-2.35433203125	0		-0.9996532592773437	0.38081912231445314	0		-0.6805214233398438	-2.548469970703125	0		1.7361041259765626	-0.36719259643554686	0		3.18338232421875	0.05955754852294922	0		4.23764990234375	0.4871829528808594	0		5.99666455078125	0.3917071228027344	0		-0.23382516479492188	5.9375380859375	0		
-0.00132123601436615	0.003658116102218628	0		0.5255263671875	-2.35263818359375	0		-0.9946236572265625	0.38444723510742185	0		-0.711371337890625	-2.53948046875	0		1.74622998046875	-0.3555491638183594	0		3.1681845703125	0.039482803344726564	0		4.23763818359375	0.48698471069335936	0		5.9996025390625	0.4121291198730469	0		-0.23495661926269532	5.9382431640625	0		
0.0036416420936584474	-6.745989918708801E-4	0		0.5785265502929687	-2.358430908203125	0		-0.9295440063476562	0.3925041198730469	0		-0.6723273315429688	-2.541161865234375	0		1.7612979736328125	-0.3499438781738281	0		3.193253662109375	0.046019668579101565	0		4.2455712890625	0.48071148681640624	0		5.99960400390625	0.41185726928710936	0		-0.21514826965332032	5.9307587890625	0		
-0.004343350887298584	1.3646000623703002E-4	0		0.5426844482421875	-2.34733544921875	0		-0.9996704711914063	0.37990603637695314	0		-0.7171460571289062	-2.52800146484375	0		1.741310302734375	-0.34998272705078126	0		3.18812060546875	0.03186101722717285	0		4.249380859375	0.46148434448242187	0		6.0031044921875	0.3942041625976562	0		-0.2502906036376953	5.92683056640625	0		
-0.004336625099182129	-1.1325599998235702E-4	0		0.5676793212890625	-2.352820556640625	0		-1.0105813598632813	0.38874725341796873	0		-0.71709814453125	-2.5282626953125	0		1.74132275390625	-0.35020401000976564	0		3.188126953125	0.031663318634033204	0		4.25331103515625	0.45426513671875	0		5.99961376953125	0.41132659912109376	0		-0.2513706207275391	5.92758642578125	0		
0.003661848068237305	-0.0014221229553222656	0		0.5277433471679688	-2.350652587890625	0		-0.9946279907226563	0.38334591674804686	0		-0.7390617065429688	-2.5292890625	0		1.7533553466796874	-0.34852688598632814	0		3.190998291015625	0.017449981689453126	0		4.25725439453125	0.44805703735351565	0		6.006751953125	0.410909423828125	0		-0.2333702850341797	5.93517578125	0		
